<?xml version="1.0" encoding="utf-8"?>
<!-- Generator: Adobe Illustrator 24.2.3, SVG Export Plug-In . SVG Version: 6.00 Build 0)  -->
<svg version="1.1" id="Ebene_1" xmlns="http://www.w3.org/2000/svg" xmlns:xlink="http://www.w3.org/1999/xlink" x="0px" y="0px"
	 viewBox="0 0 111.4 52.6" style="enable-background:new 0 0 111.4 52.6;" xml:space="preserve">
<style type="text/css">
	.st0{fill:#485156;}
	.st1{fill:#ED9B15;}
	.st2{font-family:'RotisSerifPro-Bold';}
	.st3{font-size:8.7px;}
	.st4{font-size:16px;}
</style>
<path class="st0" d="M10.1,17.2c0-3.2,2.6-5.7,5.7-5.7c3.2,0,5.7,2.6,5.7,5.7c0,3.2-2.6,5.7-5.7,5.7C12.7,22.9,10.1,20.4,10.1,17.2
	L10.1,17.2z"/>
<path class="st1" d="M15.4,25.5c0.2,0,0.3,0,0.3,0.3l0,22.3c0,2.1-0.9,1.8-1.4,0.8c-1-2.1-11.1-22-12.6-25.6C-0.9,16.8,1.2,11,5.8,7
	c3.4-2.8,6.8-3.6,9.7-3.7c0.2,0,0.2,0,0.2,0.2l0,5c0,0.3,0,0.3-0.3,0.3c-4.4,0.2-7.9,3.8-7.9,8.3C7.6,21.6,11,25.3,15.4,25.5
	L15.4,25.5z"/>
<text transform="matrix(1 0 0 1 32.5297 23.9286)" class="st0 st2 st3">Weil der Stadt</text>
<g>
	<path class="st0" d="M35,50.3v-0.2c0.1,0,0.4,0,0.4-0.2c0-0.1-0.2-0.3-0.2-0.4L34,47.8h0v1.6c0,0.5,0,0.7,0.5,0.7v0.2h-2v-0.2
		c0.6,0,0.6-0.2,0.6-0.7v-3.2c0-0.5-0.1-0.7-0.6-0.7v-0.2h2v0.2c-0.5,0-0.5,0.2-0.5,0.7v1.5h0l1.3-1.7c0.1-0.1,0.2-0.3,0.2-0.4
		c0-0.1-0.4-0.1-0.5-0.1v-0.2h1.8v0.2c-0.6,0-0.8,0.2-1.2,0.7l-1,1.3l1.4,2c0.3,0.4,0.6,0.7,1.1,0.7v0.2H35z"/>
	<path class="st0" d="M38.3,48.2c0,0.9,0.3,1.8,1.4,1.8c0.2,0,0.5,0,0.7-0.1v0.3c-0.3,0.1-0.7,0.2-1,0.2c-1.2,0-1.8-0.7-1.8-1.9
		c0-1,0.5-1.7,1.6-1.7c0.9,0,1.4,0.5,1.4,1.4H38.3z M39,47c-0.5,0-0.7,0.4-0.7,0.9h1.4C39.7,47.4,39.6,47,39,47z"/>
	<path class="st0" d="M43,50.4c-0.5,0-0.7-0.2-1-0.5h0V51c0,0.5,0.1,0.7,0.6,0.7v0.2h-1.9v-0.2c0.5,0,0.6-0.2,0.6-0.7v-3.3
		c0-0.4-0.1-0.6-0.6-0.6v-0.2l1.3-0.2v0.6c0.3-0.4,0.5-0.6,1.1-0.6c1,0,1.2,1,1.2,1.8C44.3,49.4,44,50.4,43,50.4z M42.7,47.2
		c-0.7,0-0.7,0.9-0.7,1.4c0,0.5,0,1.5,0.7,1.5c0.8,0,0.8-0.9,0.8-1.5C43.5,48,43.4,47.2,42.7,47.2z"/>
	<path class="st0" d="M47,50.4c-0.5,0-0.7-0.2-1-0.5h0V51c0,0.5,0.1,0.7,0.6,0.7v0.2h-1.9v-0.2c0.5,0,0.6-0.2,0.6-0.7v-3.3
		c0-0.4-0.1-0.6-0.6-0.6v-0.2l1.3-0.2v0.6c0.3-0.4,0.5-0.6,1.1-0.6c1,0,1.2,1,1.2,1.8C48.4,49.4,48.1,50.4,47,50.4z M46.8,47.2
		c-0.7,0-0.7,0.9-0.7,1.4c0,0.5,0,1.5,0.7,1.5c0.8,0,0.8-0.9,0.8-1.5C47.5,48,47.5,47.2,46.8,47.2z"/>
	<path class="st0" d="M48.8,50.3v-0.2c0.5,0,0.6-0.2,0.6-0.7V46c0-0.4-0.2-0.6-0.6-0.6v-0.2l1.3-0.2v4.4c0,0.5,0.1,0.7,0.6,0.7v0.2
		H48.8z"/>
	<path class="st0" d="M51.9,48.2c0,0.9,0.3,1.8,1.4,1.8c0.2,0,0.5,0,0.7-0.1v0.3c-0.3,0.1-0.7,0.2-1,0.2c-1.2,0-1.8-0.7-1.8-1.9
		c0-1,0.5-1.7,1.6-1.7c0.9,0,1.4,0.5,1.4,1.4H51.9z M52.6,47c-0.5,0-0.7,0.4-0.7,0.9h1.4C53.3,47.4,53.2,47,52.6,47z"/>
	<path class="st0" d="M56.8,47.6c-0.3,0-0.2-0.2-0.5-0.2c-0.1,0-0.2,0.1-0.2,0.1c-0.3,0.3-0.4,0.8-0.4,1.1v0.8
		c0,0.5,0.1,0.7,0.6,0.7v0.2h-1.9v-0.2c0.5,0,0.6-0.2,0.6-0.7v-1.8c0-0.4-0.1-0.6-0.6-0.6v-0.2l1.3-0.2v0.9h0c0.2-0.5,0.5-0.9,1-0.9
		c0.2,0,0.4,0.2,0.4,0.4C57.2,47.4,57,47.6,56.8,47.6z"/>
	<path class="st0" d="M57.6,48.8v-0.6h2.6v0.6H57.6z"/>
	<path class="st0" d="M62.5,50.4c-0.5,0-0.9-0.1-1.3-0.2l0-1.2h0.2c0.2,0.7,0.5,1.1,1.2,1.1c0.5,0,1-0.2,1-0.8
		c0-1.2-2.4-1.2-2.4-2.7c0-1,0.9-1.3,1.7-1.3c0.4,0,0.8,0.1,1.2,0.1l0,1.2H64c-0.1-0.6-0.4-0.9-1.1-0.9c-0.4,0-0.9,0.2-0.9,0.7
		c0,1.1,2.5,1.1,2.5,2.6C64.4,50.1,63.5,50.4,62.5,50.4z"/>
	<path class="st0" d="M66.3,47.1v2.2c0,0.4,0.2,0.6,0.6,0.6c0.1,0,0.2,0,0.3,0v0.3c-0.1,0.1-0.3,0.1-0.4,0.1c-0.7,0-1.2-0.2-1.2-1
		v-2.2H65v-0.2c0.8,0,1.1-0.6,1.1-1.3h0.2v1.2h1v0.3H66.3z"/>
	<path class="st0" d="M67.6,50.3v-0.2c0.5,0,0.6-0.2,0.6-0.7v-1.8c0-0.4-0.1-0.6-0.6-0.6v-0.2l1.3-0.2v2.7c0,0.5,0.1,0.7,0.6,0.7
		v0.2H67.6z M68.5,46.1c-0.3,0-0.5-0.2-0.5-0.5c0-0.3,0.2-0.5,0.5-0.5c0.3,0,0.5,0.2,0.5,0.5C69,45.9,68.8,46.1,68.5,46.1z"/>
	<path class="st0" d="M72.5,46c-0.5,0-0.4-0.6-0.8-0.6c-0.4,0-0.4,0.5-0.4,0.8v0.7h1v0.3h-1v2.3c0,0.5,0.1,0.7,0.6,0.7v0.2H70v-0.2
		c0.5,0,0.6-0.2,0.6-0.7v-2.3h-0.6v-0.3h0.6v-0.7c0-0.8,0.7-1.1,1.4-1.1c0.3,0,1,0,1,0.5C72.9,45.8,72.7,46,72.5,46z"/>
	<path class="st0" d="M73.7,47.1v2.2c0,0.4,0.2,0.6,0.6,0.6c0.1,0,0.2,0,0.3,0v0.3c-0.1,0.1-0.3,0.1-0.4,0.1c-0.7,0-1.2-0.2-1.2-1
		v-2.2h-0.6v-0.2c0.8,0,1.1-0.6,1.1-1.3h0.2v1.2h1v0.3H73.7z"/>
	<path class="st0" d="M77.5,50.4v-0.9h0c-0.2,0.5-0.6,0.9-1.1,0.9c-0.7,0-1-0.3-1-1v-1.7c0-0.4-0.2-0.6-0.6-0.6v-0.2l1.3-0.2v2
		c0,0.2,0,0.4,0,0.5c0,0.4,0.1,0.6,0.5,0.6c0.4,0,0.8-0.9,0.8-1.2v-1c0-0.4-0.2-0.6-0.6-0.6v-0.2l1.3-0.2v2.7c0,0.4,0.2,0.6,0.6,0.6
		v0.2L77.5,50.4z"/>
	<path class="st0" d="M81.2,50.3v-0.2c0.5,0,0.6-0.2,0.6-0.7v-1.1c0-0.2,0-0.4,0-0.5c0-0.3-0.1-0.6-0.5-0.6c-0.5,0-0.9,0.8-0.9,1.2
		v1c0,0.5,0.1,0.7,0.6,0.7v0.2h-1.9v-0.2c0.5,0,0.6-0.2,0.6-0.7v-1.8c0-0.4-0.1-0.6-0.6-0.6v-0.2l1.3-0.2v0.9h0
		c0.3-0.5,0.6-0.9,1.2-0.9c0.7,0,0.9,0.3,0.9,1v1.7c0,0.5,0.1,0.7,0.6,0.7v0.2H81.2z"/>
	<path class="st0" d="M86.7,47c-0.2,0-0.3-0.2-0.4-0.2c-0.1,0-0.2,0.2-0.3,0.3c0.3,0.2,0.4,0.5,0.4,0.9c0,0.8-0.7,1.2-1.4,1.2
		c-0.2,0-0.4,0-0.6-0.1c-0.1,0.1-0.2,0.2-0.2,0.3c0,0.2,0.2,0.3,0.4,0.3h1.2c0.6,0,1.1,0.2,1.1,0.9c0,0.2-0.1,0.4-0.2,0.5
		c-0.4,0.6-1.1,0.8-1.7,0.8c-0.5,0-1.1-0.1-1.4-0.5c-0.1-0.1-0.1-0.2-0.1-0.3c0-0.3,0.2-0.5,0.5-0.7c-0.1-0.1-0.2-0.2-0.2-0.4
		c0-0.4,0.3-0.6,0.5-0.9c-0.4-0.3-0.5-0.5-0.5-1c0-0.8,0.6-1.2,1.4-1.2c0.3,0,0.5,0.1,0.8,0.2c0.2-0.3,0.4-0.8,0.8-0.8
		c0.2,0,0.4,0.2,0.4,0.4C87.1,46.8,86.9,47,86.7,47z M85.6,50.4h-1.4c-0.1,0.1-0.1,0.3-0.1,0.4c0,0.1,0,0.2,0.1,0.3
		c0.2,0.3,0.6,0.5,0.9,0.5c0.2,0,0.4,0,0.5-0.1c0.3-0.1,0.7-0.3,0.7-0.7C86.3,50.4,85.9,50.4,85.6,50.4z M85,47
		c-0.5,0-0.6,0.6-0.6,1c0,0.5,0.1,0.9,0.6,0.9c0.5,0,0.6-0.5,0.6-0.9C85.6,47.6,85.5,47,85,47z"/>
</g>
<text transform="matrix(1 0 0 1 25.2092 13.781)" class="st0 st2 st4">Sozialstation</text>
</svg>
